HIERARCHY
ROOT Hips
{
    OFFSET 0.000000 0.000000 0.000000
    CHANNELS 6 Xposition Yposition Zposition Zrotation Xrotation Yrotation
    JOINT Spine
    {
        OFFSET -0.000000 0.083210 0.000000
        CHANNELS 3 Zrotation Xrotation Yrotation
        JOINT Spine1
        {
            OFFSET -0.000000 0.256334 0.000000
            CHANNELS 3 Zrotation Xrotation Yrotation
            JOINT Neck
            {
                OFFSET -0.000000 0.275576 0.002912
                CHANNELS 3 Zrotation Xrotation Yrotation
                JOINT Head
                {
                    OFFSET -0.000000 0.157287 0.020295
                    CHANNELS 3 Zrotation Xrotation Yrotation
                    End Site
                    {
                        OFFSET -0.000000 0.202951 0.000000
                    }
                }
            }
            JOINT LeftShoulder
            {
                OFFSET 0.041044 0.235234 -0.000041
                CHANNELS 3 Zrotation Xrotation Yrotation
                JOINT LeftArm
                {
                    OFFSET 0.117964 0.000000 0.000000
                    CHANNELS 3 Zrotation Xrotation Yrotation
                    JOINT LeftForeArm
                    {
                        OFFSET 0.291248 0.000000 0.000000
                        CHANNELS 3 Zrotation Xrotation Yrotation
                        JOINT LeftHand
                        {
                            OFFSET 0.245673 0.000000 0.000000
                            CHANNELS 3 Zrotation Xrotation Yrotation
                            End Site
                            {
                                OFFSET 0.152213 0.000000 0.000000
                            }
                        }
                    }
                }
            }
            JOINT RightShoulder
            {
                OFFSET -0.040052 0.235234 -0.000041
                CHANNELS 3 Zrotation Xrotation Yrotation
                JOINT RightArm
                {
                    OFFSET -0.117964 0.000000 0.000000
                    CHANNELS 3 Zrotation Xrotation Yrotation
                    JOINT RightForeArm
                    {
                        OFFSET -0.291248 0.000000 0.000000
                        CHANNELS 3 Zrotation Xrotation Yrotation
                        JOINT RightHand
                        {
                            OFFSET -0.245673 0.000000 0.000000
                            CHANNELS 3 Zrotation Xrotation Yrotation
                            End Site
                            {
                                OFFSET -0.152213 0.000000 0.000000
                            }
                        }
                    }
                }
            }
        }
    }
    JOINT LeftUpLeg
    {
        OFFSET 0.101475 0.000000 0.000000
        CHANNELS 3 Zrotation Xrotation Yrotation
        JOINT LeftLeg
        {
            OFFSET -0.000000 -0.446535 0.000000
            CHANNELS 3 Zrotation Xrotation Yrotation
            JOINT LeftFoot
            {
                OFFSET -0.000000 -0.400037 0.000000
                CHANNELS 3 Zrotation Xrotation Yrotation
                JOINT LeftToeBase
                {
                    OFFSET -0.000000 -0.065959 0.152213
                    CHANNELS 3 Zrotation Xrotation Yrotation
                    End Site
                    {
                        OFFSET -0.000000 0.000000 0.040590
                    }
                }
            }
        }
    }
    JOINT RightUpLeg
    {
        OFFSET -0.101475 0.000000 0.000000
        CHANNELS 3 Zrotation Xrotation Yrotation
        JOINT RightLeg
        {
            OFFSET -0.000000 -0.446535 0.000000
            CHANNELS 3 Zrotation Xrotation Yrotation
            JOINT RightFoot
            {
                OFFSET -0.000000 -0.400037 0.000000
                CHANNELS 3 Zrotation Xrotation Yrotation
                JOINT RightToeBase
                {
                    OFFSET -0.000000 -0.065959 0.152213
                    CHANNELS 3 Zrotation Xrotation Yrotation
                    End Site
                    {
                        OFFSET -0.000000 0.000000 0.040590
                    }
                }
            }
        }
    }
}
MOTION
Frames:    10
Frame Time:    0.008333
0.315783    0.951649    -0.027029    1.222013    0.315939    -1.909296    -1.042329    -2.475777    -1.734697    -0.842789    5.715805    -0.528707    3.883841    -5.691093    0.431129    1.045157    8.896647    0.551793    16.393990    -0.218300    -0.502937    -22.171732    -4.173643    3.947728    0.331215    -0.623516    -2.720579    9.900774    -0.354752    3.011953    -11.119863    1.216734    4.073618    19.099152    -0.530324    -0.115882    -0.679562    -3.918370    1.858364    2.199222    -3.972116    -3.379210    5.807458    3.160736    1.057085    -0.612662    1.788429    5.986171    -5.436890    -5.524562    -2.882125    -0.033550    4.617970    0.266848    -6.224532    0.171747    2.564010    2.300717    9.916409    1.799351    4.477689    -11.634229    -8.637864    0.003609    7.401725    -0.092226    
0.315815    0.951633    -0.026937    1.229819    0.315868    -1.916296    -1.031402    -2.467625    -1.726483    -0.850417    5.713810    -0.525645    3.872238    -5.697661    0.436556    1.049996    8.905662    0.555134    16.383589    -0.213789    -0.501331    -22.190111    -4.182431    3.950356    0.337876    -0.624879    -2.724239    9.865358    -0.356786    3.012603    -11.125720    1.227459    4.074012    19.106224    -0.531868    -0.117579    -0.686760    -3.916471    1.866095    2.192465    -3.969784    -3.376234    5.799284    3.156419    1.046906    -0.616145    1.815653    5.993463    -5.438845    -5.555930    -2.879255    -0.033921    4.607681    0.269989    -6.236951    0.181638    2.603432    2.305849    9.919814    1.792159    4.480179    -11.657660    -8.657409    0.003612    7.396994    -0.092398    
0.315851    0.951619    -0.026829    1.240453    0.313668    -1.922619    -1.020876    -2.460666    -1.716434    -0.865665    5.716853    -0.521601    3.874135    -5.701322    0.436791    1.044010    8.911383    0.556532    16.373875    -0.206341    -0.496934    -22.211426    -4.178966    3.945640    0.349418    -0.633995    -2.731638    9.840730    -0.366698    3.008772    -11.117002    1.237724    4.072698    19.103998    -0.519598    -0.118498    -0.696592    -3.924035    1.867403    2.187169    -3.976980    -3.373821    5.787147    3.153042    1.033851    -0.619685    1.846401    5.998023    -5.435459    -5.588847    -2.866731    -0.033991    4.594115    0.270793    -6.252996    0.194981    2.650611    2.314747    9.908555    1.765596    4.480211    -11.668013    -8.666091    0.003749    7.387028    -0.096119    
0.315885    0.951612    -0.026720    1.250530    0.310547    -1.929115    -1.010839    -2.453785    -1.707647    -0.876625    5.724283    -0.518246    3.875274    -5.707861    0.445270    1.032972    8.914965    0.567431    16.362774    -0.209747    -0.492565    -22.237337    -4.178135    3.949991    0.356694    -0.646681    -2.747818    9.823278    -0.377693    3.031148    -11.115834    1.238668    4.072495    19.109451    -0.499032    -0.122191    -0.711350    -3.933907    1.868151    2.179234    -3.986146    -3.361806    5.775111    3.148266    1.028839    -0.620807    1.882989    6.005011    -5.436970    -5.625445    -2.869781    -0.034008    4.575699    0.271272    -6.268308    0.210610    2.717913    2.325081    9.898364    1.735509    4.478016    -11.682899    -8.690540    0.003888    7.382061    -0.099806    
0.315927    0.951593    -0.026589    1.262253    0.303406    -1.934439    -1.000285    -2.444586    -1.697037    -0.893162    5.731884    -0.513856    3.881146    -5.712993    0.451948    1.026542    8.921878    0.575842    16.355862    -0.208352    -0.492203    -22.266582    -4.184904    3.949766    0.361601    -0.649042    -2.755076    9.866557    -0.379247    3.025718    -11.110857    1.239350    4.076187    19.113708    -0.487122    -0.137959    -0.725302    -3.940938    1.877036    2.192263    -3.993181    -3.355920    5.762306    3.145857    1.026389    -0.625433    1.926169    5.989817    -5.431875    -5.672523    -2.853485    -0.034418    4.569355    0.274667    -6.286874    0.233365    2.807539    2.346421    9.874892    1.641668    4.479673    -11.688736    -8.679488    0.003849    7.372963    -0.099000    
0.315969    0.951569    -0.026457    1.273803    0.297293    -1.939961    -0.991891    -2.435498    -1.687908    -0.902846    5.737672    -0.510399    3.878295    -5.713366    0.458461    1.023385    8.922356    0.582986    16.341190    -0.207461    -0.496297    -22.294004    -4.196631    3.958139    0.367344    -0.645990    -2.763278    9.898721    -0.375140    3.024612    -11.109009    1.237422    4.085694    19.120701    -0.467506    -0.153819    -0.746270    -3.950755    1.876201    2.210115    -4.003060    -3.350486    5.748736    3.138187    1.035873    -0.626519    1.978880    5.974485    -5.431237    -5.724022    -2.852760    -0.035826    4.556767    0.286144    -6.305676    0.260146    2.955836    2.372750    9.847770    1.510768    4.482249    -11.701080    -8.687455    0.003866    7.364445    -0.099617    
0.316013    0.951543    -0.026315    1.285660    0.288951    -1.947041    -0.983889    -2.422247    -1.676891    -0.914255    5.740432    -0.506199    3.883371    -5.708821    0.463934    1.010969    8.917839    0.591857    16.327055    -0.202254    -0.496513    -22.329582    -4.195142    3.956841    0.389160    -0.655612    -2.770109    9.882900    -0.383871    3.033553    -11.101989    1.239186    4.093885    19.119986    -0.466417    -0.174326    -0.750854    -3.950310    1.888476    2.209706    -4.002739    -3.365473    5.735196    3.128792    1.042659    -0.629157    2.042389    5.957139    -5.432003    -5.780445    -2.844438    -0.036017    4.534766    0.288110    -6.326174    0.298825    3.209916    2.419260    9.793020    1.263526    4.489795    -11.696950    -8.683671    0.003733    7.357264    -0.096364    
0.316057    0.951521    -0.026162    1.298794    0.275528    -1.957328    -0.977396    -2.401401    -1.664255    -0.925616    5.737578    -0.501513    3.894372    -5.698700    0.467381    0.988587    8.912773    0.601313    16.311123    -0.196541    -0.502533    -22.365845    -4.186818    3.962970    0.402194    -0.677643    -2.783182    9.911095    -0.403830    3.044993    -11.093613    1.242072    4.104331    19.122669    -0.479962    -0.192071    -0.761175    -3.947871    1.895803    2.206936    -4.000254    -3.378639    5.719125    3.120692    1.059428    -0.629175    2.117273    5.921560    -5.433930    -5.847840    -2.827950    -0.036829    4.524826    0.294804    -6.349674    0.344767    3.543907    2.478909    9.731526    0.967032    4.487237    -11.699519    -8.712727    0.003601    7.353292    -0.093023    
0.316104    0.951508    -0.026008    1.315278    0.261129    -1.968328    -0.972492    -2.375264    -1.650390    -0.938505    5.729956    -0.496497    3.896252    -5.696185    0.473343    0.985083    8.917945    0.608398    16.288952    -0.194175    -0.508993    -22.396843    -4.177649    3.970840    0.395053    -0.712948    -2.786605    10.044243    -0.435446    3.047398    -11.076458    1.251769    4.101372    19.117027    -0.506023    -0.195824    -0.770772    -3.943667    1.903723    2.215693    -3.996344    -3.391132    5.698336    3.102850    1.073886    -0.627186    2.215057    5.874050    -5.433388    -5.926868    -2.796749    -0.037207    4.506038    0.298218    -6.372757    0.386968    3.941661    2.544206    9.679141    0.630281    4.480825    -11.703709    -8.764175    0.003625    7.336639    -0.094018    
0.316145    0.951509    -0.025839    1.330622    0.239513    -1.980568    -0.966668    -2.338034    -1.637708    -0.954000    5.717360    -0.491775    3.906468    -5.685220    0.475577    0.968066    8.909538    0.615544    16.273682    -0.191390    -0.512814    -22.432407    -4.178785    3.984584    0.405442    -0.700446    -2.791329    9.983272    -0.430474    2.977500    -11.059447    1.246094    4.103815    19.124481    -0.515626    -0.205445    -0.794195    -3.956404    1.908384    2.224592    -4.008681    -3.378806    5.676556    3.084965    1.095018    -0.620154    2.331257    5.806648    -5.434072    -6.021746    -2.755511    -0.037963    4.484807    0.304723    -6.388647    0.432162    4.394635    2.607806    9.634362    0.269360    4.470974    -11.720003    -8.839926    0.003785    7.324951    -0.098433    
